Coordinates
version=1
nRows=21
nColumns=27
inDegrees=yes

Units are S.I. units (second, meters, Newtons, ...)
If the header above contains a line with 'inDegrees', this indicates whether rotational values are in degrees (yes) or radians (no).

endheader
time	pelvis_rotation	pelvis_tilt	pelvis_list	pelvis_tx	pelvis_ty	pelvis_tz	hip_flexion_r	hip_adduction_r	hip_rotation_r	knee_angle_r	knee_rotation_r	knee_adduction_r	knee_angle_r_beta	ankle_angle_r	subtalar_angle_r	mtp_angle_r	hip_flexion_l	hip_adduction_l	hip_rotation_l	knee_angle_l	knee_rotation_l	knee_adduction_l	knee_angle_l_beta	ankle_angle_l	subtalar_angle_l	mtp_angle_l
      9.68000000	      5.22948770	    -45.84026182	      1.13486008	     -0.14016471	      0.70486336	     -1.20147859	    107.03761027	    -14.24006240	     -3.13648833	     82.78823381	      0.00000000	     -0.22008869	      1.44492726	     18.10742677	      0.00000000	      0.00000000	    107.81472556	     -8.80684343	     -2.00517692	     79.39770033	      0.00000000	     -9.29721753	      1.38575129	     16.43656035	      0.00000000	      0.00000000
      9.68500000	      5.66982547	    -45.83847741	      1.15586710	     -0.14020811	      0.70488139	     -1.20187951	    106.96237765	    -14.74949992	     -3.40888211	     82.80841149	      0.00000000	     -0.10184785	      1.44527943	     18.16008176	      0.00000000	      0.00000000	    107.87583564	     -8.23393385	     -1.64715299	     79.33819151	      0.00000000	     -8.86743538	      1.38471266	     16.26836547	      0.00000000	      0.00000000
      9.69000000	      5.24792636	    -45.77011361	      1.13015003	     -0.14023617	      0.70496826	     -1.20139554	    106.95441230	    -14.26917378	     -3.16577703	     82.76441134	      0.00000000	     -0.18142773	      1.44451148	     18.06835220	      0.00000000	      0.00000000	    107.74991981	     -8.75422417	     -1.95436066	     79.38585639	      0.00000000	     -9.27291619	      1.38554457	     16.38475088	      0.00000000	      0.00000000
      9.69500000	      5.21720199	    -45.68846790	      0.95693467	     -0.14013901	      0.70518386	     -1.20123380	    106.76750054	    -14.29038256	     -3.35842674	     82.70556309	      0.00000000	     -0.16564132	      1.44348439	     18.07459584	      0.00000000	      0.00000000	    107.68435690	     -8.73264037	     -1.79316217	     79.36448559	      0.00000000	     -9.27345515	      1.38517158	     16.34665185	      0.00000000	      0.00000000
      9.70000000	      5.22923032	    -45.67435070	      0.92836875	     -0.14016471	      0.70531674	     -1.20116886	    106.72007292	    -14.30274403	     -3.39686002	     82.67077397	      0.00000000	     -0.17302038	      1.44287720	     18.05833082	      0.00000000	      0.00000000	    107.66832807	     -8.69858555	     -1.74156486	     79.34047086	      0.00000000	     -9.26513914	      1.38475245	     16.32283657	      0.00000000	      0.00000000
      9.70500000	      5.21758356	    -45.61702897	      0.94105657	     -0.14019615	      0.70542247	     -1.20110455	    106.65764221	    -14.28187328	     -3.37847179	     82.64983445	      0.00000000	     -0.16904451	      1.44251174	     18.03814141	      0.00000000	      0.00000000	    107.59545266	     -8.71096544	     -1.75998688	     79.31743570	      0.00000000	     -9.25625396	      1.38435041	     16.28346110	      0.00000000	      0.00000000
      9.71000000	      5.62519773	    -45.61349036	      1.06664119	     -0.14024413	      0.70555541	     -1.20152907	    106.61156840	    -14.72430003	     -3.52905249	     82.65311983	      0.00000000	     -0.05978542	      1.44256908	     18.04716074	      0.00000000	      0.00000000	    107.59785846	     -8.21298086	     -1.54504399	     79.22444727	      0.00000000	     -8.81698699	      1.38272745	     16.13779967	      0.00000000	      0.00000000
      9.71500000	      5.26110498	    -45.58751949	      0.97799071	     -0.14027263	      0.70582250	     -1.20098385	    106.58254127	    -14.30651819	     -3.39453576	     82.56595859	      0.00000000	     -0.15240830	      1.44104783	     17.99109883	      0.00000000	      0.00000000	    107.51830169	     -8.66956635	     -1.76315003	     79.22797858	      0.00000000	     -9.24484431	      1.38278909	     16.21546318	      0.00000000	      0.00000000
      9.72000000	      7.00748777	    -45.60821601	      1.68791588	     -0.14012220	      0.70579802	     -1.20234977	    106.57441375	    -16.05263735	     -3.76558465	     82.77961255	      0.00000000	      0.14158608	      1.44477679	     18.17636820	      0.00000000	      0.00000000	    107.55549218	     -6.88865492	     -1.32580810	     79.00110371	      0.00000000	     -8.70403521	      1.37882937	     15.99589880	      0.00000000	      0.00000000
      9.72500000	      5.34749860	    -45.51595199	      0.92227301	     -0.14025507	      0.70634056	     -1.20082633	    106.39429957	    -14.39714254	     -3.54354944	     82.46012706	      0.00000000	     -0.13524008	      1.43920072	     17.95961882	      0.00000000	      0.00000000	    107.41108963	     -8.57911866	     -1.67623716	     79.12353934	      0.00000000	     -9.24176048	      1.38096628	     16.11305382	      0.00000000	      0.00000000
      9.73000000	      5.81999881	    -45.52014224	      1.22217725	     -0.14040921	      0.70648641	     -1.20136621	    106.42521949	    -14.84956466	     -3.53096417	     82.48094866	      0.00000000	     -0.01090373	      1.43956412	     17.96315084	      0.00000000	      0.00000000	    107.37792181	     -8.06088694	     -1.60836006	     78.99745458	      0.00000000	     -8.79289788	      1.37876568	     15.96814217	      0.00000000	      0.00000000
      9.73500000	      5.85283326	    -45.49151441	      1.20416002	     -0.14041616	      0.70683546	     -1.20124033	    106.33021065	    -14.86557785	     -3.58340603	     82.40454091	      0.00000000	     -0.02997165	      1.43823056	     17.94829278	      0.00000000	      0.00000000	    107.31539994	     -8.03995521	     -1.59308429	     78.91386322	      0.00000000	     -8.78499714	      1.37730674	     15.89712997	      0.00000000	      0.00000000
      9.74000000	      5.50444119	    -45.47390013	      1.10719472	     -0.14044077	      0.70718063	     -1.20066743	    106.29363488	    -14.45358692	     -3.46296113	     82.30665932	      0.00000000	     -0.13387903	      1.43652220	     17.88484067	      0.00000000	      0.00000000	    107.24029092	     -8.50036097	     -1.81602316	     78.90882009	      0.00000000	     -9.23484528	      1.37721872	     15.95842840	      0.00000000	      0.00000000
      9.74500000	      5.57731423	    -45.46224018	      1.06569257	     -0.14045469	      0.70762766	     -1.20059443	    106.18500495	    -14.52193080	     -3.56980675	     82.20946714	      0.00000000	     -0.12284844	      1.43482588	     17.85774360	      0.00000000	      0.00000000	    107.19164974	     -8.42145424	     -1.75068811	     78.80933003	      0.00000000	     -9.23590004	      1.37548229	     15.88100356	      0.00000000	      0.00000000
      9.75000000	      5.66761985	    -45.45084317	      1.16611642	     -0.14052542	      0.70803347	     -1.20057628	    106.14621024	    -14.56547344	     -3.52507754	     82.13676741	      0.00000000	     -0.11616892	      1.43355703	     17.82084388	      0.00000000	      0.00000000	    107.11041791	     -8.36554252	     -1.82034807	     78.70021905	      0.00000000	     -9.23716546	      1.37357794	     15.82356464	      0.00000000	      0.00000000
      9.75500000	      5.73806870	    -45.44007981	      1.16187378	     -0.14056148	      0.70845791	     -1.20049145	    106.06097761	    -14.61964222	     -3.59332756	     82.05422767	      0.00000000	     -0.11551534	      1.43211644	     17.79862393	      0.00000000	      0.00000000	    107.06001933	     -8.31010768	     -1.80106116	     78.60831656	      0.00000000	     -9.23206174	      1.37197394	     15.74427135	      0.00000000	      0.00000000
      9.76000000	      5.78827790	    -45.43526992	      1.19457284	     -0.14063698	      0.70893357	     -1.20042770	    105.99610836	    -14.63705313	     -3.60019465	     81.95613517	      0.00000000	     -0.12124373	      1.43040440	     17.76498752	      0.00000000	      0.00000000	    106.99248922	     -8.27933459	     -1.83209512	     78.49416369	      0.00000000	     -9.23645299	      1.36998160	     15.67410152	      0.00000000	      0.00000000
      9.76500000	      5.86142424	    -45.43833750	      1.15766153	     -0.14065988	      0.70946861	     -1.20031154	    105.89479318	    -14.69275383	     -3.70210081	     81.84779076	      0.00000000	     -0.12591849	      1.42851343	     17.74126579	      0.00000000	      0.00000000	    106.94940585	     -8.21290273	     -1.77853937	     78.37803874	      0.00000000	     -9.23785112	      1.36795484	     15.58019107	      0.00000000	      0.00000000
      9.77000000	      5.98253461	    -45.43712166	      1.34898395	     -0.14079152	      0.70985214	     -1.20035708	    105.90905081	    -14.74910981	     -3.57998610	     81.79311500	      0.00000000	     -0.11365082	      1.42755916	     17.68499877	      0.00000000	      0.00000000	    106.86636279	     -8.15221384	     -1.92745234	     78.26406983	      0.00000000	     -9.23189677	      1.36596570	     15.51422271	      0.00000000	      0.00000000
      9.77500000	      6.00061711	    -45.42928987	      1.23965498	     -0.14080451	      0.71052618	     -1.20021403	    105.74998516	    -14.77232476	     -3.73953480	     81.63545758	      0.00000000	     -0.11993953	      1.42480752	     17.66650468	      0.00000000	      0.00000000	    106.79882918	     -8.11960039	     -1.84082571	     78.12497380	      0.00000000	     -9.24148641	      1.36353802	     15.42688587	      0.00000000	      0.00000000
      9.78000000	      6.50360411	    -45.44499175	      1.60292958	     -0.14100871	      0.71092651	     -1.20076374	    105.78039359	    -15.22671522	     -3.68429968	     81.61195537	      0.00000000	     -0.00581819	      1.42439733	     17.66330721	      0.00000000	      0.00000000	    106.73104775	     -7.59806063	     -1.83398906	     77.92853839	      0.00000000	     -8.79794829	      1.36010958	     15.23454612	      0.00000000	      0.00000000
